<svg version="1.1" xmlns="http://www.w3.org/2000/svg" xmlns:xlink="http://www.w3.org/1999/xlink" viewBox="0 0 172 172"><defs><linearGradient x1="86" y1="14.35125" x2="86" y2="153.18212" gradientUnits="userSpaceOnUse" id="color-1"><stop offset="0" stop-color="#1767f0"></stop><stop offset="1" stop-color="#c822ff"></stop></linearGradient><linearGradient x1="83.3125" y1="104.8125" x2="83.3125" y2="126.88494" gradientUnits="userSpaceOnUse" id="color-2"><stop offset="0" stop-color="#80acf7"></stop><stop offset="1" stop-color="#e492ff"></stop></linearGradient><linearGradient x1="83.3125" y1="45.80306" x2="83.3125" y2="65.37613" gradientUnits="userSpaceOnUse" id="color-3"><stop offset="0" stop-color="#80acf7"></stop><stop offset="1" stop-color="#e492ff"></stop></linearGradient><linearGradient x1="115.5625" y1="75.30644" x2="115.5625" y2="96.03244" gradientUnits="userSpaceOnUse" id="color-4"><stop offset="0" stop-color="#80acf7"></stop><stop offset="1" stop-color="#e492ff"></stop></linearGradient></defs><g fill="none" fill-rule="nonzero" stroke="none" stroke-width="1" stroke-linecap="butt" stroke-linejoin="miter" stroke-miterlimit="10" stroke-dasharray="" stroke-dashoffset="0" font-family="none" font-weight="none" font-size="none" text-anchor="none" style="mix-blend-mode: normal"><path d="M0,172v-172h172v172z" fill="none"></path><g id="Layer_1"><path d="M155.60625,76.59375l-60.2,-60.2c-2.41875,-2.41875 -5.9125,-4.03125 -9.40625,-4.03125c-3.49375,0 -6.9875,1.34375 -9.40625,4.03125l-60.2,60.2c-2.41875,2.41875 -4.03125,5.9125 -4.03125,9.40625c0,3.49375 1.34375,6.9875 4.03125,9.40625l59.93125,59.93125c2.41875,2.41875 5.9125,4.03125 9.40625,4.03125c3.49375,0 6.9875,-1.34375 9.40625,-4.03125l59.93125,-59.93125c2.41875,-2.41875 4.03125,-5.9125 4.03125,-9.40625c0,-3.49375 -1.075,-6.9875 -3.49375,-9.40625zM151.84375,91.64375l-60.2,60.2c-2.95625,2.95625 -8.33125,2.95625 -11.2875,0l-60.2,-60.2c-1.34375,-1.34375 -2.15,-3.49375 -2.15,-5.64375c0,-2.15 0.80625,-4.3 2.41875,-5.64375l43,-43l17.46875,17.46875v0v60.7375h5.375v-55.3625l29.025,29.025l3.7625,-3.7625l-52.1375,-51.86875l13.4375,-13.4375c1.34375,-1.34375 3.49375,-2.15 5.64375,-2.15c2.15,0 4.3,0.80625 5.64375,2.41875l59.93125,59.93125c1.6125,1.6125 2.41875,3.49375 2.41875,5.64375c0,2.15 -0.80625,4.3 -2.15,5.64375z" fill="url(#color-1)"></path><circle cx="31" cy="43" transform="scale(2.6875,2.6875)" r="4" fill="url(#color-2)"></circle><circle cx="31" cy="21" transform="scale(2.6875,2.6875)" r="4" fill="url(#color-3)"></circle><g fill="url(#color-4)"><circle cx="43" cy="32" transform="scale(2.6875,2.6875)" r="4"></circle></g></g></g></svg>