<svg version="1.1" xmlns="http://www.w3.org/2000/svg" xmlns:xlink="http://www.w3.org/1999/xlink" viewBox="0 0 172 172"><g fill="none" fill-rule="nonzero" stroke="none" stroke-width="1" stroke-linecap="butt" stroke-linejoin="miter" stroke-miterlimit="10" stroke-dasharray="" stroke-dashoffset="0" font-family="none" font-weight="none" font-size="none" text-anchor="none" style="mix-blend-mode: normal"><path d="M0,172v-172h172v172z" fill="none"></path><g><path d="M150.285,84.70283l-0.00717,0.00717c0,6.91583 -5.66883,12.54167 -12.642,12.54167c-6.98033,-0.0215 -12.62767,-5.64017 -12.62767,-12.56317c0,-3.9775 1.86333,-7.51783 4.76583,-9.81833l0.02867,-0.0215l0.05017,-0.05017c0.40133,-0.301 0.85283,-0.602 1.30433,-0.89583c0,0 0.05733,0 0.05733,-0.05017c0.20067,-0.10033 0.40133,-0.25083 0.602,-0.35833c0.05017,0 0.10033,-0.043 0.1505,-0.043c0.20067,-0.10033 0.4515,-0.20067 0.70233,-0.301c0.24367,-0.10033 0.50883,-0.1935 0.7095,-0.29383c0.05017,0 0.09317,-0.05017 0.14333,-0.05017c0.20067,-0.05017 0.40133,-0.1505 0.60917,-0.20067c0.05017,0 0.14333,-0.05017 0.20067,-0.05017c0.24367,-0.05017 0.4515,-0.10033 0.70233,-0.14333h0.05017l0.7525,-0.15767c0.05017,0 0.14333,0 0.20067,-0.05017c0.20067,0 0.40133,-0.05017 0.602,-0.05017h0.24367c0.25083,0 0.50883,-0.05017 0.80267,-0.05017h0.65217c0.20067,0 0.35833,0 0.559,0.05017h0.10033c0.40133,0.05017 0.80267,0.10033 1.204,0.20067c5.79067,1.26133 10.06917,6.30667 10.0835,12.34817z" fill="#34dbdb"></path><path d="M73.07133,84.65983v-0.03583c0,-5.81933 4.0205,-10.71417 9.44567,-12.09017l0.086,-0.0215v-0.00717l0.70233,-0.14333h0.14333l0.602,-0.1075h0.20067l0.55183,-0.05017h1.9565l0.50167,0.05017l0.25083,0.05017l0.55183,0.10033l0.20067,0.05017l0.70233,0.14333h0.05017l0.59483,0.20783l0.20067,0.05017l0.50167,0.1935l0.1505,0.05017l0.602,0.25083h0.05017l0.65217,0.35833l-0.00717,-0.00717h0.05017l0.602,0.344l0.09317,0.05017l0.559,0.35117l0.05017,0.05017l1.70567,1.4405l0.05017,0.05017c2.14283,2.24317 3.46867,5.27467 3.46867,8.6215v0.05017c-0.2365,6.751 -5.81217,12.13317 -12.64917,12.13317c-6.837,0 -12.41267,-5.38217 -12.64917,-12.11167v-0.0215z" fill="#34dbdb"></path><path d="M17.888,127.581c1.204,-7.27417 4.56517,-14.09683 7.783,-20.6185l0.55183,-1.14667c1.0965,0.40133 2.2575,0.70233 3.4615,0.903c-1.90633,10.5565 3.51167,21.457 14.061,26.83917l1.90633,0.99617l2.05683,-0.74533c8.77917,-3.08883 16.9205,-8.11267 24.1015,-14.835c3.90583,-3.61917 7.34583,-7.654 10.277,-12.04717l0.16483,-0.25083c1.15383,0.1935 2.30767,0.24367 3.46867,0.24367c10.3845,-0.0215 19.12067,-7.02333 21.6935,-16.51917l0.03583,-0.15767h8.43517c2.59433,9.66783 11.34483,16.67683 21.7365,16.67683h0.00717c4.16383,0 8.0195,-1.14667 11.34483,-3.08167c1.30433,3.72667 1.70567,7.61817 1.00333,11.5025h0.00717c-1.21833,6.59333 -5.246,12.05433 -10.78583,15.22917l-0.10033,0.05733c-5.47533,3.139 -12.20483,4.13517 -19.2855,5.13133c-4.71567,0.602 -8.74333,1.333 -12.69933,2.25033l0.84567,-0.16483c-10.44183,2.54417 -20.47517,7.525 -30.21467,12.30517c-12.45567,6.12033 -24.20183,11.89667 -35.088,11.89667h-0.17917c-5.762,0 -11.094,-1.83467 -15.42983,-4.945c-11.01517,-7.58233 -10.4705,-21.758 -9.159,-29.5195z" fill="#34dbdb"></path><path d="M86,72.20417h-1.18967l-0.55183,0.05017h-0.20067l-0.602,0.1075h-0.14333l-0.70233,0.14333v0.00717l-0.086,0.0215c-5.43233,1.376 -9.44567,6.27083 -9.44567,12.09017v0.03583v0.0215c0.2365,6.7295 5.81217,12.11167 12.64917,12.11167c0.09317,0 0.18633,0 0.2795,0v-24.58883z" fill="#458ce3"></path><path d="M26.22283,105.81583l-0.55183,1.14667c-3.21783,6.52167 -6.57183,13.33717 -7.783,20.6185c-1.30433,7.7615 -1.85617,21.93717 9.16617,29.50517c4.33583,3.11033 9.66783,4.945 15.42983,4.945h0.16483c10.88617,0 22.63233,-5.76917 35.088,-11.89667c2.7305,-1.34017 5.4825,-2.69467 8.26317,-4.00617v-39.22317c-0.09317,0 -0.1935,0 -0.28667,0c-1.161,0 -2.31483,-0.05017 -3.46867,-0.24367l-0.16483,0.25083c-2.93117,4.40033 -6.37117,8.43517 -10.277,12.04717c-7.18817,6.72233 -15.32233,11.75333 -24.1015,14.835l-2.04967,0.75967l-1.90633,-0.99617c-10.54933,-5.38217 -15.96733,-16.28267 -14.061,-26.83917c-1.204,-0.20067 -2.365,-0.50167 -3.4615,-0.903z" fill="#458ce3"></path><path d="M33.20317,72.154c6.98033,0 12.64917,5.633 12.64917,12.54883c0,6.91583 -5.66883,12.556 -12.642,12.556c-6.97317,0 -12.65633,-5.62583 -12.65633,-12.54167c0,-6.923 5.676,-12.56317 12.64917,-12.56317z" fill="#34dbdb"></path><path d="M33.20317,72.154c-6.97317,0 -12.64917,5.64017 -12.64917,12.56317c0,6.90867 5.68317,12.5345 12.64917,12.54167v-25.10483v0z" fill="#458ce3"></path><path d="M137.65017,72.154c-6.97317,0 -12.64917,5.64017 -12.64917,12.56317c0,6.90867 5.68317,12.5345 12.64917,12.54167v-25.10483v0z" fill="#458ce3"></path><path d="M71.86733,9.96167h78.9695l-18.13167,53.03333c-0.7525,0.14333 -1.505,0.39417 -2.25033,0.645l-19.0705,-38.5925l-19.135,38.34167c-0.7525,-0.24367 -1.56233,-0.39417 -2.365,-0.54467l-18.017,-52.88283z" fill="#34dbdb"></path><path d="M111.3485,9.96167h-39.48117l18.017,52.88283c0.80267,0.1505 1.6125,0.301 2.365,0.54467l19.10633,-38.28433v-15.14317z" fill="#458ce3"></path></g></g></svg>